<mxfile host="65bd71144e">
    <diagram id="55kdeNugkqWxNJDBGbz9" name="Page-1">
        <mxGraphModel dx="1074" dy="741" grid="1" gridSize="10" guides="1" tooltips="1" connect="1" arrows="1" fold="1" page="1" pageScale="1" pageWidth="827" pageHeight="1169" math="0" shadow="0">
            <root>
                <mxCell id="0"/>
                <mxCell id="1" parent="0"/>
                <mxCell id="6" style="edgeStyle=none;html=1;exitX=1;exitY=0.5;exitDx=0;exitDy=0;exitPerimeter=0;entryX=0;entryY=0.57;entryDx=0;entryDy=0;entryPerimeter=0;endArrow=none;endFill=0;" parent="1" source="2" target="5" edge="1">
                    <mxGeometry relative="1" as="geometry"/>
                </mxCell>
                <mxCell id="2" value="" style="pointerEvents=1;verticalLabelPosition=bottom;shadow=0;dashed=0;align=center;html=1;verticalAlign=top;shape=mxgraph.electrical.resistors.resistor_2;" parent="1" vertex="1">
                    <mxGeometry x="370" y="250" width="100" height="20" as="geometry"/>
                </mxCell>
                <mxCell id="9" style="edgeStyle=none;html=1;exitX=0;exitY=0.5;exitDx=0;exitDy=0;endArrow=none;endFill=0;rounded=0;" parent="1" source="3" edge="1">
                    <mxGeometry relative="1" as="geometry">
                        <mxPoint x="640" y="360" as="targetPoint"/>
                        <Array as="points">
                            <mxPoint x="170" y="360"/>
                        </Array>
                    </mxGeometry>
                </mxCell>
                <mxCell id="3" value="" style="pointerEvents=1;verticalLabelPosition=bottom;shadow=0;dashed=0;align=center;html=1;verticalAlign=top;shape=mxgraph.electrical.miscellaneous.batteryStack;direction=south;" parent="1" vertex="1">
                    <mxGeometry x="140" y="260" width="60" height="100" as="geometry"/>
                </mxCell>
                <mxCell id="10" style="edgeStyle=none;html=1;exitX=1;exitY=0.57;exitDx=0;exitDy=0;exitPerimeter=0;endArrow=none;endFill=0;" parent="1" source="5" edge="1">
                    <mxGeometry relative="1" as="geometry">
                        <mxPoint x="640" y="360" as="targetPoint"/>
                    </mxGeometry>
                </mxCell>
                <mxCell id="5" value="" style="verticalLabelPosition=bottom;shadow=0;dashed=0;align=center;html=1;verticalAlign=top;shape=mxgraph.electrical.opto_electronics.led_2;pointerEvents=1;" parent="1" vertex="1">
                    <mxGeometry x="540" y="220" width="100" height="70" as="geometry"/>
                </mxCell>
                <mxCell id="12" value="Alejandro Castaneda - TEJ3M1 - Unit #4-03" style="text;html=1;resizable=0;autosize=1;align=center;verticalAlign=middle;points=[];fillColor=none;strokeColor=none;rounded=0;" parent="1" vertex="1">
                    <mxGeometry x="95" y="80" width="250" height="20" as="geometry"/>
                </mxCell>
                <mxCell id="13" value="5 V" style="text;html=1;resizable=0;autosize=1;align=center;verticalAlign=middle;points=[];fillColor=none;strokeColor=none;rounded=0;" parent="1" vertex="1">
                    <mxGeometry x="200" y="200" width="30" height="20" as="geometry"/>
                </mxCell>
                <mxCell id="14" value="&lt;span style=&quot;color: rgb(32 , 33 , 36) ; font-family: &amp;#34;arial&amp;#34; , sans-serif ; text-align: left ; background-color: rgb(255 , 255 , 255)&quot;&gt;&lt;font style=&quot;font-size: 12px&quot;&gt;220 Î©&lt;/font&gt;&lt;/span&gt;" style="text;html=1;resizable=0;autosize=1;align=center;verticalAlign=middle;points=[];fillColor=none;strokeColor=none;rounded=0;" parent="1" vertex="1">
                    <mxGeometry x="389" y="200" width="50" height="20" as="geometry"/>
                </mxCell>
                <mxCell id="15" value="LED 1" style="text;html=1;resizable=0;autosize=1;align=center;verticalAlign=middle;points=[];fillColor=none;strokeColor=none;rounded=0;fontSize=12;" parent="1" vertex="1">
                    <mxGeometry x="565" y="190" width="50" height="20" as="geometry"/>
                </mxCell>
                <mxCell id="16" value="&lt;font style=&quot;font-size: 24px&quot;&gt;+&lt;/font&gt;" style="text;html=1;resizable=0;autosize=1;align=center;verticalAlign=middle;points=[];fillColor=none;strokeColor=none;rounded=0;fontSize=12;" parent="1" vertex="1">
                    <mxGeometry x="130" y="350" width="30" height="20" as="geometry"/>
                </mxCell>
                <mxCell id="17" value="-" style="text;html=1;resizable=0;autosize=1;align=center;verticalAlign=middle;points=[];fillColor=none;strokeColor=none;rounded=0;fontSize=24;" parent="1" vertex="1">
                    <mxGeometry x="140" y="245" width="20" height="30" as="geometry"/>
                </mxCell>
            </root>
        </mxGraphModel>
    </diagram>
</mxfile>